<mxfile host="app.diagrams.net" modified="2022-08-15T14:11:23.053Z" agent="5.0 (Windows NT 10.0; Win64; x64) AppleWebKit/537.36 (KHTML, like Gecko) Chrome/104.0.0.0 Safari/537.36" etag="zw7na231WZ_5Mv3oKZ-Z" version="20.2.3" type="github">
  <diagram id="B3kgOfJoqGJ2eT8AgkZ6" name="Page-1">
    <mxGraphModel dx="1191" dy="633" grid="0" gridSize="10" guides="1" tooltips="1" connect="1" arrows="1" fold="1" page="1" pageScale="1" pageWidth="827" pageHeight="1169" math="0" shadow="0">
      <root>
        <mxCell id="0" />
        <mxCell id="1" parent="0" />
        <mxCell id="EtlgoZdPYqRWU7xBMrw1-3" style="edgeStyle=orthogonalEdgeStyle;rounded=0;orthogonalLoop=1;jettySize=auto;html=1;exitX=1;exitY=0.5;exitDx=0;exitDy=0;endArrow=open;endFill=0;" edge="1" parent="1" source="EtlgoZdPYqRWU7xBMrw1-1" target="EtlgoZdPYqRWU7xBMrw1-2">
          <mxGeometry relative="1" as="geometry" />
        </mxCell>
        <mxCell id="EtlgoZdPYqRWU7xBMrw1-1" value="进场需求单" style="rounded=0;whiteSpace=wrap;html=1;fillColor=#dae8fc;strokeColor=none;" vertex="1" parent="1">
          <mxGeometry x="185" y="215" width="80" height="30" as="geometry" />
        </mxCell>
        <mxCell id="EtlgoZdPYqRWU7xBMrw1-9" style="edgeStyle=orthogonalEdgeStyle;rounded=0;orthogonalLoop=1;jettySize=auto;html=1;exitX=0.25;exitY=0;exitDx=0;exitDy=0;endArrow=open;endFill=0;entryX=0.25;entryY=1;entryDx=0;entryDy=0;" edge="1" parent="1" source="EtlgoZdPYqRWU7xBMrw1-2" target="EtlgoZdPYqRWU7xBMrw1-8">
          <mxGeometry relative="1" as="geometry" />
        </mxCell>
        <mxCell id="EtlgoZdPYqRWU7xBMrw1-24" style="edgeStyle=orthogonalEdgeStyle;rounded=0;orthogonalLoop=1;jettySize=auto;html=1;exitX=1;exitY=0.25;exitDx=0;exitDy=0;entryX=0.203;entryY=1.017;entryDx=0;entryDy=0;entryPerimeter=0;endArrow=open;endFill=0;" edge="1" parent="1" source="EtlgoZdPYqRWU7xBMrw1-2" target="EtlgoZdPYqRWU7xBMrw1-23">
          <mxGeometry relative="1" as="geometry" />
        </mxCell>
        <mxCell id="EtlgoZdPYqRWU7xBMrw1-2" value="交付需求单" style="rounded=0;whiteSpace=wrap;html=1;fillColor=#dae8fc;strokeColor=none;" vertex="1" parent="1">
          <mxGeometry x="371" y="215" width="80" height="30" as="geometry" />
        </mxCell>
        <mxCell id="EtlgoZdPYqRWU7xBMrw1-4" value="生成交付工单" style="text;html=1;strokeColor=none;fillColor=none;align=center;verticalAlign=middle;whiteSpace=wrap;rounded=0;" vertex="1" parent="1">
          <mxGeometry x="270" y="211" width="93" height="19" as="geometry" />
        </mxCell>
        <mxCell id="EtlgoZdPYqRWU7xBMrw1-6" style="edgeStyle=orthogonalEdgeStyle;rounded=0;orthogonalLoop=1;jettySize=auto;html=1;endArrow=open;endFill=0;" edge="1" parent="1" source="EtlgoZdPYqRWU7xBMrw1-5" target="EtlgoZdPYqRWU7xBMrw1-1">
          <mxGeometry relative="1" as="geometry" />
        </mxCell>
        <mxCell id="EtlgoZdPYqRWU7xBMrw1-5" value="" style="ellipse;whiteSpace=wrap;html=1;aspect=fixed;fillColor=#ffff88;strokeColor=#36393d;" vertex="1" parent="1">
          <mxGeometry x="219" y="142" width="12" height="12" as="geometry" />
        </mxCell>
        <mxCell id="EtlgoZdPYqRWU7xBMrw1-7" value="进场需求关键数据：交货地、交货时间、发货地、货、是否我方运输、其他信息为交付工单中的关键信息" style="text;html=1;strokeColor=none;fillColor=none;align=left;verticalAlign=middle;whiteSpace=wrap;rounded=0;" vertex="1" parent="1">
          <mxGeometry x="17" y="154" width="200" height="56" as="geometry" />
        </mxCell>
        <mxCell id="EtlgoZdPYqRWU7xBMrw1-11" style="edgeStyle=orthogonalEdgeStyle;rounded=0;orthogonalLoop=1;jettySize=auto;html=1;exitX=0.75;exitY=1;exitDx=0;exitDy=0;entryX=0.75;entryY=0;entryDx=0;entryDy=0;endArrow=open;endFill=0;" edge="1" parent="1" source="EtlgoZdPYqRWU7xBMrw1-8" target="EtlgoZdPYqRWU7xBMrw1-2">
          <mxGeometry relative="1" as="geometry" />
        </mxCell>
        <mxCell id="EtlgoZdPYqRWU7xBMrw1-8" value="分配装车工程师工单" style="rounded=0;whiteSpace=wrap;html=1;fillColor=#dae8fc;strokeColor=none;" vertex="1" parent="1">
          <mxGeometry x="371" y="147" width="80" height="30" as="geometry" />
        </mxCell>
        <mxCell id="EtlgoZdPYqRWU7xBMrw1-10" value="工单状态：待分配-&amp;gt;已分配&lt;br&gt;操作：分派、改派" style="text;html=1;strokeColor=none;fillColor=none;align=left;verticalAlign=middle;whiteSpace=wrap;rounded=0;" vertex="1" parent="1">
          <mxGeometry x="343" y="104" width="157" height="38" as="geometry" />
        </mxCell>
        <mxCell id="EtlgoZdPYqRWU7xBMrw1-15" value="谁来装车" style="text;html=1;strokeColor=none;fillColor=none;align=center;verticalAlign=middle;whiteSpace=wrap;rounded=0;" vertex="1" parent="1">
          <mxGeometry x="434.5" y="180" width="28" height="30" as="geometry" />
        </mxCell>
        <mxCell id="EtlgoZdPYqRWU7xBMrw1-16" value="找人装车" style="text;html=1;strokeColor=none;fillColor=none;align=center;verticalAlign=middle;whiteSpace=wrap;rounded=0;" vertex="1" parent="1">
          <mxGeometry x="360" y="181" width="28" height="30" as="geometry" />
        </mxCell>
        <mxCell id="EtlgoZdPYqRWU7xBMrw1-17" value="交付状态：已创建" style="text;html=1;strokeColor=none;fillColor=none;align=center;verticalAlign=middle;whiteSpace=wrap;rounded=0;" vertex="1" parent="1">
          <mxGeometry x="360" y="255" width="108" height="30" as="geometry" />
        </mxCell>
        <mxCell id="EtlgoZdPYqRWU7xBMrw1-18" value="交付状态：待装车" style="text;html=1;strokeColor=none;fillColor=none;align=center;verticalAlign=middle;whiteSpace=wrap;rounded=0;" vertex="1" parent="1">
          <mxGeometry x="515" y="255" width="108" height="30" as="geometry" />
        </mxCell>
        <mxCell id="EtlgoZdPYqRWU7xBMrw1-19" value="交付状态：已发货" style="text;html=1;strokeColor=none;fillColor=none;align=center;verticalAlign=middle;whiteSpace=wrap;rounded=0;" vertex="1" parent="1">
          <mxGeometry x="797" y="255" width="108" height="30" as="geometry" />
        </mxCell>
        <mxCell id="EtlgoZdPYqRWU7xBMrw1-20" value="交付状态：已完成" style="text;html=1;strokeColor=none;fillColor=none;align=center;verticalAlign=middle;whiteSpace=wrap;rounded=0;" vertex="1" parent="1">
          <mxGeometry x="1042" y="255" width="108" height="30" as="geometry" />
        </mxCell>
        <mxCell id="EtlgoZdPYqRWU7xBMrw1-21" value="交付状态：待发货" style="text;html=1;strokeColor=none;fillColor=none;align=center;verticalAlign=middle;whiteSpace=wrap;rounded=0;" vertex="1" parent="1">
          <mxGeometry x="659" y="255" width="108" height="30" as="geometry" />
        </mxCell>
        <mxCell id="EtlgoZdPYqRWU7xBMrw1-22" value="交付状态：待卸车" style="text;html=1;strokeColor=none;fillColor=none;align=center;verticalAlign=middle;whiteSpace=wrap;rounded=0;" vertex="1" parent="1">
          <mxGeometry x="913" y="255" width="108" height="30" as="geometry" />
        </mxCell>
        <mxCell id="EtlgoZdPYqRWU7xBMrw1-23" value="装车工单" style="rounded=0;whiteSpace=wrap;html=1;fillColor=#dae8fc;strokeColor=none;" vertex="1" parent="1">
          <mxGeometry x="519" y="145" width="80" height="30" as="geometry" />
        </mxCell>
        <mxCell id="EtlgoZdPYqRWU7xBMrw1-25" value="生成装车工单" style="text;html=1;strokeColor=none;fillColor=none;align=center;verticalAlign=middle;whiteSpace=wrap;rounded=0;" vertex="1" parent="1">
          <mxGeometry x="482" y="181" width="46" height="30" as="geometry" />
        </mxCell>
        <mxCell id="EtlgoZdPYqRWU7xBMrw1-26" value="工单事项：" style="text;html=1;strokeColor=none;fillColor=none;align=left;verticalAlign=middle;whiteSpace=wrap;rounded=0;" vertex="1" parent="1">
          <mxGeometry x="502" y="97" width="157" height="38" as="geometry" />
        </mxCell>
      </root>
    </mxGraphModel>
  </diagram>
</mxfile>
